<svg fill="#697080" width="100%" height="100%" version="1.1" viewBox="0 0 23.812497 15.875" xmlns="http://www.w3.org/2000/svg">
 <g transform="translate(-87.124 -151.48)">
  <path d="m92.389 162.06c-2.9104 0-5.2652-2.3812-5.2652-5.2917 0-2.9104 2.3812-5.2917 5.2917-5.2917 2.9104 0 5.2917 2.3812 5.2917 5.2917 0 5.8473-4.736 10.583-10.583 10.583 0 0 3.466-1.2965 5.2652-5.2917zm7.964-5.2917c0-2.9104 2.3812-5.2917 5.2917-5.2917 2.9104 0 5.2917 2.3812 5.2917 5.2917 0 5.8473-4.736 10.583-10.583 10.583 0 0 3.466-1.2965 5.2652-5.2917-2.9104 0-5.2652-2.3812-5.2652-5.2917z" stroke-width=".26458"/>
 </g>
</svg>
